<svg width="140" height="37" viewBox="0 0 140 37" fill="none" xmlns="http://www.w3.org/2000/svg">
<path d="M17.059 37C18.7216 37 20.0694 35.6522 20.0694 33.9896C20.0694 32.327 18.7216 30.9792 17.059 30.9792C15.3964 30.9792 14.0486 32.327 14.0486 33.9896C14.0486 35.6522 15.3964 37 17.059 37Z" fill="#00E0EC"/>
<path d="M31.1076 37C32.7702 37 34.118 35.6522 34.118 33.9896C34.118 32.327 32.7702 30.9792 31.1076 30.9792C29.445 30.9792 28.0972 32.327 28.0972 33.9896C28.0972 35.6522 29.445 37 31.1076 37Z" fill="#00E0EC"/>
<path d="M22.0764 20.9445H26.0902V14.9437H32.091V10.9298H26.0902V4.94916H22.0764V10.9298H16.0756V14.9437H22.0764V20.9445Z" fill="#00E0EC"/>
<path d="M16.0555 28.9722H32.1111C32.5153 28.971 32.9098 28.8478 33.2429 28.6186C33.5759 28.3894 33.832 28.065 33.9775 27.6878L39.6572 12.9167H35.3623L30.7263 24.9583H17.4002L8.38901 3.34361C8.08349 2.6112 7.56771 1.9858 6.90686 1.54642C6.24601 1.10705 5.46975 0.873424 4.67617 0.875077H0V4.88896H4.67617L14.2091 27.7279C14.3597 28.0944 14.6154 28.4082 14.944 28.6296C15.2725 28.851 15.6593 28.9702 16.0555 28.9722Z" fill="#00E0EC"/>
<path d="M132.848 28.637V15.8305H128.466V13.6037H140V15.8305H135.639V28.637H132.848Z" fill="#232323"/>
<path d="M115.567 28.637V13.5626H121.139C121.898 13.5626 122.555 13.5969 123.109 13.6653C123.67 13.7337 124.2 13.8602 124.7 14.0449C125.206 14.2228 125.613 14.4657 125.921 14.7735C126.236 15.0814 126.482 15.485 126.66 15.9844C126.845 16.477 126.937 17.0619 126.937 17.7391C126.937 19.7368 126.03 21.0502 124.218 21.6796C124.587 22.0969 125.045 22.87 125.593 23.9988L127.83 28.637H124.792L123.037 24.7068C122.374 23.2976 121.963 22.4629 121.806 22.203C121.69 22.1961 121.303 22.1927 120.646 22.1927L118.317 22.1722V28.637H115.567ZM121.385 20.1814C122.453 20.1814 123.219 19.9933 123.684 19.617C124.149 19.2339 124.382 18.6217 124.382 17.7802C124.382 17.0414 124.146 16.4975 123.674 16.1486C123.202 15.7997 122.48 15.6252 121.508 15.6252H118.317V20.1712C118.42 20.1712 118.929 20.1746 119.846 20.1814C120.763 20.1814 121.276 20.1814 121.385 20.1814Z" fill="#232323"/>
<path d="M100.133 28.637L105.664 13.5934H108.692L114.141 28.637H111.288L109.8 24.3887H104.536L103.037 28.637H100.133ZM105.233 22.3159H109.092C107.86 18.3685 107.228 16.3299 107.193 16.1999L105.233 22.3159Z" fill="#232323"/>
<path d="M82.8835 28.637V13.6037H86.1673L90.7132 24.4605L95.2899 13.6037H98.5326V28.637H95.9672V21.2076L96.0493 16.949L95.6696 18.0778L91.8215 27.6109H89.4408L85.6747 18.0265L85.295 16.8977L85.3874 21.2486V28.637H82.8835Z" fill="#232323"/>
<path d="M64.5767 26.4103H66.5675C68.2846 26.4103 69.5913 25.9622 70.4874 25.066C71.3836 24.163 71.8317 22.8495 71.8317 21.1255C71.8317 19.2784 71.3699 17.9375 70.4464 17.1029C69.5228 16.2615 68.1307 15.8407 66.2699 15.8407H64.5767V26.4103ZM61.7958 28.637V13.6037H66.1468C67.4603 13.6037 68.6369 13.7542 69.6768 14.0552C70.7166 14.3562 71.6094 14.8111 72.3551 15.42C73.1076 16.022 73.6822 16.8019 74.079 17.7597C74.4827 18.7106 74.6845 19.812 74.6845 21.0639C74.6845 23.4925 73.9525 25.3636 72.4885 26.6771C71.0245 27.9837 68.9961 28.637 66.4033 28.637H61.7958Z" fill="#00E0EC"/>
<path d="M55.6798 28.637V13.6037H58.4608V28.637H55.6798Z" fill="#00E0EC"/>
<path d="M40 28.637L45.531 13.5934H48.5582L54.0072 28.637H51.1544L49.6665 24.3887H44.4023L42.9041 28.637H40ZM45.1001 22.3159H48.9584C47.727 18.3685 47.0942 16.3299 47.06 16.1999L45.1001 22.3159Z" fill="#00E0EC"/>
</svg>
